<svg width="16" height="16" viewBox="0 0 16 16" fill="none" xmlns="http://www.w3.org/2000/svg">
<path opacity="0.4" fill-rule="evenodd" clip-rule="evenodd" d="M3.1261 14.7672C3.1261 14.0814 3.66967 13.5262 4.34114 13.5262C5.00463 13.5262 5.54821 14.0814 5.54821 14.7672C5.54821 15.4448 5.00463 16 4.34114 16C3.66967 16 3.1261 15.4448 3.1261 14.7672ZM12.1191 14.7672C12.1191 14.0814 12.6627 13.5262 13.3341 13.5262C13.9976 13.5262 14.5412 14.0814 14.5412 14.7672C14.5412 15.4448 13.9976 16 13.3341 16C12.6627 16 12.1191 15.4448 12.1191 14.7672Z" fill="#181C2E"/>
<path fill-rule="evenodd" clip-rule="evenodd" d="M14.5413 3.14263C15.0289 3.14263 15.3486 3.31407 15.6684 3.68962C15.9882 4.06517 16.0441 4.604 15.9721 5.09303L15.2127 10.4487C15.0689 11.4782 14.2055 12.2366 13.1903 12.2366H4.46912C3.40595 12.2366 2.52663 11.4039 2.4387 10.327L1.70329 1.42735L0.496219 1.21509C0.176468 1.15794 -0.0473697 0.839537 0.00858664 0.512974C0.064543 0.178246 0.37632 -0.0421834 0.704065 0.0068011L2.61056 0.300709C2.88235 0.35051 3.08219 0.578288 3.10617 0.855867L3.25806 2.68462C3.28204 2.94669 3.48989 3.14263 3.74569 3.14263H14.5413ZM9.69705 7.38713H11.9113C12.2471 7.38713 12.5109 7.10955 12.5109 6.77483C12.5109 6.43193 12.2471 6.16252 11.9113 6.16252H9.69705C9.36131 6.16252 9.09752 6.43193 9.09752 6.77483C9.09752 7.10955 9.36131 7.38713 9.69705 7.38713Z" fill="#181C2E"/>
</svg>
